<?xml version="1.0" encoding="UTF-8"?>
<svg width="17px" height="10px" viewBox="0 0 17 10" version="1.1" xmlns="http://www.w3.org/2000/svg" xmlns:xlink="http://www.w3.org/1999/xlink">
    <!-- Generator: Sketch 52.6 (67491) - http://www.bohemiancoding.com/sketch -->
    <title>Path_213</title>
    <desc>Created with Sketch.</desc>
    <g id="Symbols" stroke="none" stroke-width="1" fill="none" fill-rule="evenodd">
        <g id="Cell/views" transform="translate(-1.000000, -2.000000)" fill="#1B8BC0" fill-rule="nonzero">
            <g id="views" transform="translate(1.000000, 1.000000)">
                <path d="M8.56755556,1.36363636 C5.2780819,1.49073907 2.24751683,3.12399431 0.405555556,5.76236364 C0.232602572,5.98718964 0.232602572,6.29508309 0.405555556,6.51990909 C2.24602649,9.16034729 5.27713526,10.7952122 8.56755556,10.9221818 C11.8570292,10.7950791 14.8875943,9.16182387 16.7295556,6.52345455 C16.9025085,6.29862855 16.9025085,5.99073509 16.7295556,5.76590909 C14.8890846,3.12547089 11.8579758,1.49060597 8.56755556,1.36363636 Z M8.79488889,9.50872727 C7.34562606,9.60021913 5.9893808,8.81384998 5.39015455,7.53461675 C4.7909283,6.25538351 5.07412197,4.75099307 6.10108732,3.75797699 C7.12805266,2.76496091 8.68387525,2.49112902 10.006843,3.07054613 C11.3298107,3.64996325 12.1430642,4.96137396 12.0484444,6.36272727 C11.9333096,8.05195454 10.5418675,9.39739851 8.79488889,9.50872727 Z M8.68977778,7.95345455 C7.90953886,8.00206149 7.17974087,7.57829776 6.85745897,6.88950224 C6.53517708,6.20070673 6.68780239,5.39091078 7.24065847,4.85633092 C7.79351456,4.32175107 8.63099585,4.17417122 9.34333993,4.48579917 C10.055684,4.79742712 10.4939354,5.50309956 10.4436667,6.25754545 C10.3845361,7.16943821 9.63284635,7.89627872 8.68977778,7.95345455 Z" id="Path_213"></path>
            </g>
        </g>
    </g>
</svg>